REM DIRINDEX 1\2,1\3,1\4,1\5
REM DIRNAME cjc004,folder01,folder02,folder03,folder04
TITLE ""
FILE "1Q_t_2011-2020.mp3" MP3
  TRACK 01 AUDIO
    TITLE "3:cjc004_6941"
    INDEX 01 00:00:00
  TRACK 02 AUDIO
    TITLE "0:"
    INDEX 01 00:01:11
  TRACK 03 AUDIO
    TITLE "4:cjc004_6942"
    INDEX 01 00:01:36
  TRACK 04 AUDIO
    TITLE "0:"
    INDEX 01 00:02:57
  TRACK 05 AUDIO
    TITLE "5:cjc004_6943"
    INDEX 01 00:03:08
  TRACK 06 AUDIO
    TITLE "0:"
    INDEX 01 00:06:65
  TRACK 07 AUDIO
    TITLE "3:cjc004_6944"
    INDEX 01 00:07:49
  TRACK 08 AUDIO
    TITLE "0:"
    INDEX 01 00:08:72
  TRACK 09 AUDIO
    TITLE "4:cjc004_6945"
    INDEX 01 00:09:28
  TRACK 10 AUDIO
    TITLE "0:"
    INDEX 01 00:10:47
  TRACK 11 AUDIO
    TITLE "5:cjc004_6946"
    INDEX 01 00:10:72
  TRACK 12 AUDIO
    TITLE "0:"
    INDEX 01 00:15:32
  TRACK 13 AUDIO
    TITLE "3:cjc004_6947"
    INDEX 01 00:16:08
  TRACK 14 AUDIO
    TITLE "0:"
    INDEX 01 00:17:18
  TRACK 15 AUDIO
    TITLE "4:cjc004_6948"
    INDEX 01 00:17:43
  TRACK 16 AUDIO
    TITLE "0:"
    INDEX 01 00:18:72
  TRACK 17 AUDIO
    TITLE "5:cjc004_6949"
    INDEX 01 00:19:20
  TRACK 18 AUDIO
    TITLE "0:"
    INDEX 01 00:23:14
  TRACK 19 AUDIO
    TITLE "3:cjc004_6950"
    INDEX 01 00:23:69
  TRACK 20 AUDIO
    TITLE "0:"
    INDEX 01 00:24:69
  TRACK 21 AUDIO
    TITLE "4:cjc004_6951"
    INDEX 01 00:25:27
  TRACK 22 AUDIO
    TITLE "0:"
    INDEX 01 00:26:44
  TRACK 23 AUDIO
    TITLE "5:cjc004_6952"
    INDEX 01 00:26:66
  TRACK 24 AUDIO
    TITLE "0:"
    INDEX 01 00:30:59
  TRACK 25 AUDIO
    TITLE "3:cjc004_6953"
    INDEX 01 00:31:33
  TRACK 26 AUDIO
    TITLE "0:"
    INDEX 01 00:32:39
  TRACK 27 AUDIO
    TITLE "4:cjc004_6954"
    INDEX 01 00:32:66
  TRACK 28 AUDIO
    TITLE "0:"
    INDEX 01 00:34:14
  TRACK 29 AUDIO
    TITLE "5:cjc004_6955"
    INDEX 01 00:34:40
  TRACK 30 AUDIO
    TITLE "0:"
    INDEX 01 00:39:41
  TRACK 31 AUDIO
    TITLE "3:cjc004_6956"
    INDEX 01 00:40:15
  TRACK 32 AUDIO
    TITLE "0:"
    INDEX 01 00:41:32
  TRACK 33 AUDIO
    TITLE "4:cjc004_6957"
    INDEX 01 00:41:59
  TRACK 34 AUDIO
    TITLE "0:"
    INDEX 01 00:43:15
  TRACK 35 AUDIO
    TITLE "5:cjc004_6958"
    INDEX 01 00:43:37
  TRACK 36 AUDIO
    TITLE "0:"
    INDEX 01 00:48:00
  TRACK 37 AUDIO
    TITLE "3:cjc004_6959"
    INDEX 01 00:48:51
  TRACK 38 AUDIO
    TITLE "0:"
    INDEX 01 00:50:03
  TRACK 39 AUDIO
    TITLE "4:cjc004_6960"
    INDEX 01 00:50:31
  TRACK 40 AUDIO
    TITLE "0:"
    INDEX 01 00:51:71
  TRACK 41 AUDIO
    TITLE "5:cjc004_6961"
    INDEX 01 00:52:20
  TRACK 42 AUDIO
    TITLE "0:"
    INDEX 01 00:57:09
  TRACK 43 AUDIO
    TITLE "3:cjc004_6962"
    INDEX 01 00:57:58
  TRACK 44 AUDIO
    TITLE "0:"
    INDEX 01 00:58:71
  TRACK 45 AUDIO
    TITLE "4:cjc004_6963"
    INDEX 01 00:59:20
  TRACK 46 AUDIO
    TITLE "0:"
    INDEX 01 01:00:47
  TRACK 47 AUDIO
    TITLE "5:cjc004_6964"
    INDEX 01 01:00:70
  TRACK 48 AUDIO
    TITLE "0:"
    INDEX 01 01:04:74
  TRACK 49 AUDIO
    TITLE "3:cjc004_6965"
    INDEX 01 01:05:50
  TRACK 50 AUDIO
    TITLE "0:"
    INDEX 01 01:06:65
  TRACK 51 AUDIO
    TITLE "4:cjc004_6966"
    INDEX 01 01:07:19
  TRACK 52 AUDIO
    TITLE "0:"
    INDEX 01 01:08:33
  TRACK 53 AUDIO
    TITLE "5:cjc004_6967"
    INDEX 01 01:08:56
  TRACK 54 AUDIO
    TITLE "0:"
    INDEX 01 01:13:45
  TRACK 55 AUDIO
    TITLE "3:cjc004_6968"
    INDEX 01 01:14:19
  TRACK 56 AUDIO
    TITLE "0:"
    INDEX 01 01:15:27
  TRACK 57 AUDIO
    TITLE "4:cjc004_6969"
    INDEX 01 01:15:54
  TRACK 58 AUDIO
    TITLE "0:"
    INDEX 01 01:16:71
  TRACK 59 AUDIO
    TITLE "5:cjc004_6970"
    INDEX 01 01:17:22
  TRACK 60 AUDIO
    TITLE "0:"
    INDEX 01 01:21:41
